<svg width="150" height="150" viewBox="0 0 150 150" fill="none" xmlns="http://www.w3.org/2000/svg">
<g clip-path="url(#clip0_124_1500)">
<path d="M4.19325 4.19325C6.87899 1.50831 10.5212 0 14.3188 0C18.1164 0 21.7586 1.50831 24.4444 4.19325L75.0865 54.8354L125.729 4.19325C128.43 1.5844 132.047 0.140841 135.803 0.173472C139.558 0.206103 143.15 1.71232 145.805 4.36771C148.461 7.0231 149.967 10.6152 149.999 14.3703C150.032 18.1255 148.589 21.7432 145.98 24.4444L95.3376 75.0865L145.98 125.729C148.589 128.43 150.032 132.047 149.999 135.803C149.967 139.558 148.461 143.15 145.805 145.805C143.15 148.461 139.558 149.967 135.803 149.999C132.047 150.032 128.43 148.589 125.729 145.98L75.0865 95.3376L24.4444 145.98C21.7432 148.589 18.1255 150.032 14.3703 149.999C10.6152 149.967 7.0231 148.461 4.36771 145.805C1.71232 143.15 0.206103 139.558 0.173472 135.803C0.140841 132.047 1.5844 128.43 4.19325 125.729L54.8354 75.0865L4.19325 24.4444C1.50831 21.7586 0 18.1164 0 14.3188C0 10.5212 1.50831 6.87899 4.19325 4.19325Z" fill="black"/>
</g>
<defs>
<clipPath id="clip0_124_1500">
<rect width="150" height="150" fill="white"/>
</clipPath>
</defs>
</svg>
