<svg width="150" height="150" viewBox="0 0 150 150" fill="none" xmlns="http://www.w3.org/2000/svg">
<g clip-path="url(#clip0_124_1485)">
<path d="M120.423 0H29.5775C13.2423 0 0 13.2423 0 29.5775V120.423C0 136.758 13.2423 150 29.5775 150H120.423C136.758 150 150 136.758 150 120.423V29.5775C150 13.2423 136.758 0 120.423 0Z" fill="black" stroke="black" stroke-width="21.9178"/>
<path d="M125.296 47.3835C120.202 38.6561 113.293 31.7467 104.567 26.6535C95.8387 21.5601 86.3104 19.0141 75.9751 19.0141C65.641 19.0141 56.1096 21.5609 47.3836 26.6535C38.6562 31.7464 31.7472 38.6561 26.6536 47.3835C21.5607 56.1106 19.0142 65.6407 19.0142 75.9734C19.0142 88.3854 22.6354 99.5466 29.8797 109.46C37.1233 119.374 46.4808 126.234 57.9517 130.041C59.2869 130.289 60.2754 130.114 60.918 129.522C61.561 128.93 61.8821 128.187 61.8821 127.298C61.8821 127.15 61.8693 125.815 61.8446 123.293C61.8192 120.771 61.8072 118.571 61.8072 116.694L60.1013 116.989C59.0136 117.188 57.6415 117.272 55.9849 117.248C54.3291 117.225 52.6102 117.052 50.8305 116.729C49.05 116.409 47.3939 115.668 45.861 114.506C44.3289 113.344 43.2412 111.823 42.5983 109.945L41.8566 108.238C41.3623 107.102 40.584 105.84 39.5207 104.456C38.4575 103.071 37.3823 102.133 36.2946 101.638L35.7753 101.267C35.4293 101.02 35.1082 100.722 34.8113 100.376C34.5146 100.03 34.2925 99.684 34.1442 99.3375C33.9956 98.9907 34.1187 98.7063 34.5149 98.4831C34.911 98.26 35.627 98.1516 36.6658 98.1516L38.1486 98.3732C39.1375 98.5714 40.3608 99.1635 41.82 100.153C43.2783 101.142 44.4772 102.427 45.4168 104.009C46.5546 106.036 47.9254 107.581 49.5332 108.645C51.1396 109.708 52.7593 110.239 54.3907 110.239C56.0221 110.239 57.4311 110.115 58.6183 109.869C59.8041 109.622 60.9167 109.25 61.9556 108.756C62.4006 105.442 63.6122 102.896 65.5893 101.116C62.7713 100.82 60.2377 100.374 57.9873 99.7807C55.7381 99.1868 53.4139 98.2231 51.0162 96.8868C48.6172 95.5523 46.6271 93.8952 45.0453 91.9184C43.4633 89.9404 42.165 87.3437 41.1521 84.1306C40.1387 80.9162 39.6319 77.2081 39.6319 73.0055C39.6319 67.0216 41.5854 61.9295 45.4916 57.7264C43.6618 53.2276 43.8345 48.1844 46.0104 42.5972C47.4443 42.1516 49.5708 42.486 52.3889 43.5981C55.2074 44.7107 57.2711 45.6638 58.5819 46.454C59.8927 47.244 60.943 47.9134 61.7342 48.4564C66.3335 47.1713 71.0799 46.5286 75.9745 46.5286C80.8692 46.5286 85.6166 47.1713 90.2161 48.4564L93.0344 46.6772C94.9617 45.49 97.2375 44.4021 99.8566 43.4131C102.477 42.4247 104.481 42.1524 105.866 42.5979C108.09 48.1854 108.289 53.2284 106.458 57.7272C110.364 61.9303 112.318 67.0237 112.318 73.0063C112.318 77.2089 111.81 80.9286 110.798 84.1678C109.785 87.4074 108.475 90.0015 106.869 91.9555C105.261 93.9093 103.258 95.5534 100.86 96.8876C98.4619 98.2228 96.1369 99.1866 93.8878 99.7804C91.6376 100.374 89.104 100.821 86.286 101.117C88.8562 103.341 90.1416 106.852 90.1416 111.648V127.296C90.1416 128.185 90.4507 128.927 91.0695 129.52C91.6875 130.112 92.6635 130.287 93.9987 130.039C105.471 126.232 114.829 119.372 122.072 109.458C129.314 99.5445 132.937 88.3834 132.937 75.9714C132.934 65.6399 130.387 56.1106 125.296 47.3835Z" fill="white"/>
</g>
<defs>
<clipPath id="clip0_124_1485">
<rect width="150" height="150" fill="white"/>
</clipPath>
</defs>
</svg>
