<svg width="150" height="150" viewBox="0 0 150 150" fill="none" xmlns="http://www.w3.org/2000/svg">
<path d="M138.275 4.6998C137.318 2.73622 135.47 1.2339 133.198 0.572025L133.182 0.567298L133.166 0.562574L133.132 0.553049L133.062 0.533549L132.913 0.493724C132.809 0.466724 132.696 0.439198 132.574 0.411523C132.331 0.356173 132.052 0.300524 131.739 0.248924C131.111 0.145574 130.347 0.0590236 129.447 0.0209236C127.64 -0.0555764 125.326 0.0643483 122.485 0.604048C117.747 1.50397 111.596 3.5598 103.873 7.77232C103.369 8.04765 102.857 8.3322 102.339 8.6262C101.82 8.51707 101.301 8.41162 100.782 8.31C86.7003 5.55622 72.1249 5.55622 58.043 8.31C57.5232 8.4117 57.004 8.51707 56.4855 8.62627C55.9671 8.3322 55.4555 8.04765 54.9504 7.77232C47.22 3.55762 41.0549 1.50217 36.3046 0.602924C33.4568 0.0638986 31.1373 -0.0553515 29.3292 0.0208485C28.428 0.0587985 27.6648 0.144824 27.0376 0.247424C26.7246 0.298649 26.4468 0.353774 26.2042 0.408524C26.083 0.435899 25.9707 0.463199 25.8672 0.489824L25.7188 0.529199L25.6497 0.548325L25.6163 0.557773L25.6 0.562424L25.5839 0.567073C23.2921 1.22977 21.4302 2.74672 20.4748 4.72957C16.916 12.1155 15.9714 20.26 17.6854 28.0729C17.7686 28.4525 17.8582 28.8313 17.954 29.2093C17.5866 29.653 17.2296 30.1026 16.8831 30.5579C11.5386 37.5817 8.69582 45.9593 8.82906 54.562C8.84185 72.9862 15.1733 85.6043 25.881 93.7238C31.9422 98.3198 38.9771 101.133 46.0473 102.906C46.8564 103.109 47.6659 103.298 48.4745 103.475C48.3564 103.824 48.2464 104.176 48.1445 104.53C47.7164 106.018 47.4325 107.546 47.3012 109.096C47.2893 109.236 47.2817 109.376 47.2787 109.516L46.9794 123.157L46.9777 123.305C46.9777 123.348 46.9777 123.391 46.9777 123.433C46.4346 123.548 45.8825 123.632 45.3246 123.687C43.6056 123.856 41.8645 123.733 40.2006 123.325C38.5367 122.918 36.9816 122.234 35.625 121.312C34.2684 120.389 33.1368 119.246 32.2967 117.946L32.2101 117.815C29.8971 114.401 26.7022 111.479 22.8654 109.271C19.0284 107.062 14.6505 105.627 10.0629 105.074C5.23808 104.493 0.772347 107.346 0.0884396 111.448C-0.595468 115.549 2.76142 119.345 7.58627 119.926C9.51314 120.158 11.3548 120.761 12.9716 121.692C14.5694 122.611 15.9067 123.827 16.8829 125.25C18.8346 128.244 21.4556 130.885 24.6 133.024C27.7722 135.181 31.4144 136.784 35.3179 137.74C39.1187 138.67 43.0932 138.968 47.0246 138.619C47.0326 140.418 47.0382 141.799 47.0382 142.5C47.0382 146.642 50.781 150 55.3979 150H103.727C108.343 150 112.086 146.642 112.086 142.5V114.071C112.314 110.851 111.926 107.624 110.945 104.53C110.81 104.104 110.663 103.68 110.506 103.259C111.033 103.148 111.56 103.03 112.086 102.906C119.361 101.203 126.628 98.418 132.871 93.7372C143.638 85.6627 149.983 73.0343 149.996 54.562C150.129 45.9593 147.286 37.5817 141.941 30.5579C141.595 30.1018 141.237 29.6515 140.869 29.2072C140.964 28.8299 141.053 28.4518 141.136 28.0729C142.846 20.245 141.877 12.0856 138.275 4.6998Z" fill="black"/>
</svg>
