<svg width="150" height="150" viewBox="0 0 150 150" fill="none" xmlns="http://www.w3.org/2000/svg">
<g clip-path="url(#clip0_124_1508)">
<path fill-rule="evenodd" clip-rule="evenodd" d="M148.661 60.0297H76.5847C76.5847 67.5255 76.5847 82.5157 76.5387 90.0114H118.305C116.705 97.5072 111.03 108.003 103.012 113.288C103.012 113.288 102.997 113.332 102.982 113.324C92.3218 120.363 78.2542 121.96 67.8087 119.861C51.436 116.608 38.4786 104.734 33.2176 89.6525C33.2482 89.63 33.2713 89.4222 33.2942 89.4072C30.0013 80.0524 30.0013 67.5255 33.2942 60.0297H33.2866C37.5291 46.2525 50.8769 33.6827 67.2726 30.2421C80.4596 27.4462 95.3391 30.4729 106.282 40.7121C107.737 39.2879 126.423 21.0439 127.824 19.5598C90.4379 -14.2987 30.5756 -2.38824 8.17607 41.3347H8.1684C8.1684 41.3347 8.17613 41.3365 8.13018 41.4189C-2.9509 62.8943 -2.49144 88.1994 8.20674 108.648C8.17611 108.67 8.15315 108.684 8.13018 108.706C17.8252 127.521 35.4691 141.95 56.7276 147.444C79.311 153.366 108.051 149.319 127.303 131.906L127.326 131.928C143.638 117.236 153.792 92.2091 148.661 60.0297Z" fill="black"/>
</g>
<defs>
<clipPath id="clip0_124_1508">
<rect width="150" height="149.999" fill="white" transform="translate(0 0.000366211)"/>
</clipPath>
</defs>
</svg>
