<svg width="150" height="150" viewBox="0 0 150 150" fill="none" xmlns="http://www.w3.org/2000/svg">
<path d="M0 0H150C150 0 150 0 150 21.4286V150C150 150 150 150 128.571 150H21.4286C9.64286 150 0 150 0 150V21.4286C0 0 0 0 0 0Z" fill="black"/>
<path d="M99.8437 45.4688C97.0312 45.4688 94.2188 47.8125 94.2188 51.0937C94.2188 54.375 96.5625 56.7188 99.8437 56.7188C103.125 56.7188 105.469 54.375 105.469 51.0937C105 47.8125 102.656 45.4688 99.8437 45.4688Z" fill="white"/>
<path d="M75 52.5C62.3437 52.5 52.0312 62.8125 52.0312 75.4688C52.0312 88.125 62.3437 98.4375 75 98.4375C87.6563 98.4375 97.9688 88.125 97.9688 75.4688C98.4375 62.8125 88.125 52.5 75 52.5ZM75 90.4687C67.0312 90.4687 60 83.9063 60 75.4688C60 67.5 66.5625 60.4687 75 60.4687C82.9688 60.4687 90 67.0313 90 75.4688C90 83.9063 83.4375 90.4687 75 90.4687Z" fill="white"/>
<path d="M93.75 28.125H56.25C40.7813 28.125 28.125 40.7813 28.125 56.25V93.75C28.125 109.219 40.7813 121.875 56.25 121.875H93.75C109.219 121.875 121.875 109.219 121.875 93.75V56.25C121.875 40.7813 109.219 28.125 93.75 28.125ZM112.969 93.75C112.969 104.531 104.063 112.969 93.75 112.969H56.25C45.4688 112.969 37.0313 104.063 37.0313 93.75V56.25C37.0313 45.4688 45.9375 37.0313 56.25 37.0313H93.75C104.531 37.0313 112.969 45.9375 112.969 56.25V93.75Z" fill="white"/>
</svg>
