<svg width="150" height="150" viewBox="0 0 150 150" fill="none" xmlns="http://www.w3.org/2000/svg">
<g clip-path="url(#clip0_124_1498)">
<path d="M138.902 4.23301e-08H0.000108659C-0.039902 4.23301e-08 10.983 4.23301e-08 10.933 4.23301e-08C4.93642 4.23301e-08 0.0401193 -5.29126e-08 0.000108659 4.23301e-08L0.5 150C0.550013 150 11.028 150 11.0781 150H138.887C138.927 150 138.977 150 139.027 150C150 150 150 150 150 150V139.192L149.5 4.23301e-08C149.5 4.23301e-08 145.029 4.23301e-08 139.022 4.23301e-08C138.972 4.23301e-08 138.927 4.23301e-08 138.877 4.23301e-08H138.902ZM44.4869 127.824H22.211V56.25H44.4869V127.824ZM33.354 46.4574C26.2271 46.4574 20.4555 40.6808 20.4555 33.5589C20.4555 26.4371 26.2321 20.6605 33.354 20.6605C40.4759 20.6605 46.2524 26.432 46.2524 33.5539C46.2524 33.5589 46.2524 33.564 46.2524 33.574C46.2524 40.6909 40.4809 46.4624 33.364 46.4624C33.359 46.4624 33.354 46.4624 33.349 46.4624L33.354 46.4574ZM127.789 127.824H105.578V93.0198C105.578 84.7176 105.408 74.0397 94.0051 74.0397C82.422 74.0397 80.6566 83.0722 80.6566 92.4096V127.829H58.4456V56.255H79.7813V66.0126H80.0714C84.2125 59.0358 91.7045 54.4345 100.272 54.4345C100.577 54.4345 100.877 54.4395 101.177 54.4495H101.132C123.638 54.4495 127.799 69.2635 127.799 88.5436V127.829L127.789 127.824Z" fill="black"/>
</g>
<defs>
<clipPath id="clip0_124_1498">
<rect width="150" height="150" fill="white"/>
</clipPath>
</defs>
</svg>
