<svg width="150" height="150" viewBox="0 0 150 150" fill="none" xmlns="http://www.w3.org/2000/svg">
<g clip-path="url(#clip0_124_1502)">
<path d="M149.754 56.9074C149.196 55.241 147.753 54.0269 146.016 53.7597L99.905 46.7144L79.2448 2.70349C78.4714 1.05818 76.8167 0.00817871 75.0003 0.00817871C73.1839 0.00817871 71.5315 1.05818 70.7558 2.70349L50.0956 46.7144L3.98467 53.7621C2.24795 54.0269 0.806546 55.2433 0.24639 56.9097C-0.311422 58.5738 0.108109 60.4113 1.33623 61.6699L34.8378 96.0222L26.9206 144.547C26.63 146.319 27.3776 148.103 28.8472 149.134C29.6534 149.703 30.598 149.992 31.5448 149.992C32.323 149.992 33.1058 149.795 33.8136 149.406L74.998 126.627L116.182 149.406C116.89 149.795 117.673 149.992 118.451 149.992C119.398 149.992 120.345 149.703 121.149 149.134C122.618 148.103 123.366 146.319 123.075 144.547L115.158 96.0222L148.66 61.6699C149.89 60.409 150.312 58.5715 149.754 56.9074Z" fill="black"/>
</g>
<defs>
<clipPath id="clip0_124_1502">
<rect width="150" height="150" fill="white"/>
</clipPath>
</defs>
</svg>
